inDegrees=no
num_controls=7
num_derivatives=13
num_iterations=107
num_multipliers=7
num_parameters=0
num_slacks=7
num_states=26
objective=5.392618
objective_accelerations=0.590986
objective_balance=0.041624
objective_effort=0.229173
objective_height=4.462708
objective_ligament=0.068128
solver_duration=1195.423236
status=Solve_Succeeded
success=true
DataType=double
version=3
OpenSimVersion=4.4-2022-07-23-0e9fedc
endheader
time	/jointset/ground_pelvis/pelvis_tilt/value	/jointset/ground_pelvis/pelvis_tx/value	/jointset/ground_pelvis/pelvis_ty/value	/jointset/hip_l/hip_flexion_l/value	/jointset/hip_l/hip_adduction_l/value	/jointset/hip_l/hip_rotation_l/value	/jointset/back/lumbar_extension/value	/jointset/patellofemoral_l/patellar_flexion_l/value	/jointset/knee_l/knee_flexion_l/value	/jointset/knee_l/knee_adduction_l/value	/jointset/knee_l/knee_rotation_l/value	/jointset/ankle_l/ankle_angle_l/value	/jointset/subtalar_l/subtalar_angle_l/value	/jointset/ground_pelvis/pelvis_tilt/speed	/jointset/ground_pelvis/pelvis_tx/speed	/jointset/ground_pelvis/pelvis_ty/speed	/jointset/hip_l/hip_flexion_l/speed	/jointset/hip_l/hip_adduction_l/speed	/jointset/hip_l/hip_rotation_l/speed	/jointset/back/lumbar_extension/speed	/jointset/patellofemoral_l/patellar_flexion_l/speed	/jointset/knee_l/knee_flexion_l/speed	/jointset/knee_l/knee_adduction_l/speed	/jointset/knee_l/knee_rotation_l/speed	/jointset/ankle_l/ankle_angle_l/speed	/jointset/subtalar_l/subtalar_angle_l/speed	/forceset/tau_hip_flexion_l	/forceset/tau_hip_adduction_l	/forceset/tau_hip_rotation_l	/forceset/tau_knee_flexion_l	/forceset/tau_ankle_angle_l	/forceset/tau_subtalar_angle_l	/forceset/tau_lumbar_extension	lambda_cid13_p0	lambda_cid13_p1	lambda_cid13_p2	lambda_cid13_p3	lambda_cid13_p4	lambda_cid13_p5	lambda_cid14_p0	/jointset/ground_pelvis/pelvis_tilt/accel	/jointset/ground_pelvis/pelvis_tx/accel	/jointset/ground_pelvis/pelvis_ty/accel	/jointset/hip_l/hip_flexion_l/accel	/jointset/hip_l/hip_adduction_l/accel	/jointset/hip_l/hip_rotation_l/accel	/jointset/back/lumbar_extension/accel	/jointset/patellofemoral_l/patellar_flexion_l/accel	/jointset/knee_l/knee_flexion_l/accel	/jointset/knee_l/knee_adduction_l/accel	/jointset/knee_l/knee_rotation_l/accel	/jointset/ankle_l/ankle_angle_l/accel	/jointset/subtalar_l/subtalar_angle_l/accel	gamma_cid13_p0	gamma_cid13_p1	gamma_cid13_p2	gamma_cid13_p3	gamma_cid13_p4	gamma_cid13_p5	gamma_cid14_p0
0	-0.04308495670898051	0.07048913002891742	0.8960955296842588	0.1955292361009247	-0.3204637664517122	-0.5137214388508073	-0.137903700187828	0.07015350928391538	0.07015350928391206	-0.1745329125419718	-0.1466773074981134	-0.06701017130107029	0.005819964930574126	0	0	0	0	0	0	0	0	0	0	0	0	0	0.09834170282572942	-0.118964986537958	-0.03770788463969424	-0.2542739235153432	0.2416781147130209	-0.01182791121538982	-0.03960007442437363	42.27230061584343	-5.931035843243388	4.797476022614733	-26.73502211204925	-518.1964775238126	-86.20755455801235	-40.72080990277081	-2.56895863540403	-0.7976173934017017	-0.7633308951072307	9.175998498175556	-2.25295199942438	3.496880843698085	-2.462644699511577	10.32485582237712	10.32485582237488	0.830239037232135	-0.5337772388973346	3.890269937140839	-0.3472041199154623	-3.544794524051468e-08	1.60424462291327e-07	1.086036091985465e-07	1.994264517566575e-08	-1.659986473302587e-08	-5.258962533429919e-08	1.920742249522994e-09
0.01	-0.04320640038467978	0.07045087364402577	0.8960585546214451	0.1959708931176051	-0.3205746412859551	-0.5135451111196383	-0.1380317674773386	0.07065565960295324	0.07065565960293289	-0.174494708399411	-0.1466971765539002	-0.06681993512505856	0.005802165708747456	-0.02425004151972166	-0.007521105871425308	-0.007372489793592625	0.08789768987388476	-0.02208515758390808	0.03510731257792223	-0.02541944517975619	0.09999602715163673	0.09999602715163455	0.007579180544831554	-0.003946127462322169	0.03799667838866692	-0.003489639840057606	0.09880121457397351	-0.1292089437624821	-0.03809642694160391	-0.2581332371903628	0.2433932958260952	-0.003987168027256794	-0.03944937054848441	43.08370057323967	-9.169601416403594	4.961136269584034	-28.74310354500614	-519.2097350053542	-93.38001026292511	-40.73049284551146	-2.347237068526006	-0.7098275297453078	-0.7208329260867534	8.531582516188829	-2.172865881569923	3.493913079157914	-2.552492518755	9.771870279371655	9.77187027937277	0.7125519169886969	-0.3208720113032719	3.746783915839676	-0.3393507720971057	-8.695761790654305e-08	1.790197256036067e-07	2.077753297208013e-07	6.196173617618168e-08	-2.213486883339889e-07	-1.246716893098027e-07	-8.673256611647502e-09
0.02	-0.04356918650723137	0.0703413121312729	0.8959485296797753	0.1972785126898573	-0.3209036813447779	-0.5130224589398249	-0.1384082088369565	0.0721447490170487	0.07214474901704647	-0.1743825535806192	-0.1467556751866248	-0.06625124873993804	0.005751568717311173	-0.04826848937022538	-0.01426102557224979	-0.01460997577125093	0.1731925111155097	-0.043633044915651	0.06926488972858393	-0.04967481402139195	0.1973878190158612	0.1973878190158722	0.01479013524486607	-0.00772591538079072	0.07569004182173916	-0.006559553921960336	0.09926072632218419	-0.1394529009870026	-0.0384849692433323	-0.2619925508654103	0.2451084769391755	0.003853575160881339	-0.03929866667262701	43.95954231154578	-12.42176655020117	5.129612368220253	-30.98019678710104	-519.3209528064807	-100.3767123374399	-40.7589779876655	-2.52263990156033	-0.6413801592816425	-0.7363301319203663	8.655424771723615	-2.145497948991343	3.306933758245975	-2.229829431887456	9.804008764894689	9.804008764895498	0.756593868272731	-0.5005093301266357	3.829606946021785	-0.26325896828455	-1.384672905725714e-07	1.976149889158865e-07	3.069470502430562e-07	1.039808271766976e-07	-4.260975119349519e-07	-1.967537532853062e-07	-1.9267255472818e-08
0.03	-0.04417036562785361	0.07016710056812286	0.8957665804635195	0.1994273082025541	-0.3214451223977111	-0.5121633380175064	-0.1390207187437573	0.0745950846291131	0.07459508462911414	-0.1741995180158728	-0.14685179871492	-0.06530837316197494	0.005672105448835649	-0.07182502972970418	-0.0205652117574913	-0.02177314062612661	0.2561844428412172	-0.06452305543132944	0.1024222793104004	-0.0726084833443592	0.2922258252115156	0.2922258252115009	0.02180474006652484	-0.01146207243446573	0.1126934897088023	-0.009296427101119388	0.09396392451054572	-0.1312713803286601	-0.03727859380065507	-0.2542457041983067	0.2357958565384003	0.002274978776201652	-0.03511840415805704	40.91010159019021	-11.40542378048996	5.19965525713484	-28.76305602134089	-519.4935122277386	-97.63382605654242	-40.80508390022464	-2.250831380637024	-0.6225055874893999	-0.705386680968708	8.063731731574061	-2.040997908749163	3.299550899876484	-2.292333083251751	9.255678715152875	9.255678715148363	0.6721302950838169	-0.3046258310236353	3.606969671634977	-0.2734657556540593	-1.70201019326406e-07	2.208222443093932e-07	3.66973473032344e-07	1.321864063255567e-07	-5.760384808316528e-07	-2.430434238093912e-07	-2.284017610683614e-08
